<?xml version="1.0" encoding="utf-8" standalone="no"?>
<!DOCTYPE svg PUBLIC "-//W3C//DTD SVG 1.1//EN"
  "http://www.w3.org/Graphics/SVG/1.1/DTD/svg11.dtd">
<svg xmlns:xlink="http://www.w3.org/1999/xlink" width="638.974438pt" height="499.069384pt" viewBox="0 0 638.974438 499.069384" xmlns="http://www.w3.org/2000/svg" version="1.1">
 <metadata>
  <rdf:RDF xmlns:dc="http://purl.org/dc/elements/1.1/" xmlns:cc="http://creativecommons.org/ns#" xmlns:rdf="http://www.w3.org/1999/02/22-rdf-syntax-ns#">
   <cc:Work>
    <dc:type rdf:resource="http://purl.org/dc/dcmitype/StillImage"/>
    <dc:date>2026-05-16T17:35:51.338468</dc:date>
    <dc:format>image/svg+xml</dc:format>
    <dc:creator>
     <cc:Agent>
      <dc:title>Matplotlib v3.9.4, https://matplotlib.org/</dc:title>
     </cc:Agent>
    </dc:creator>
   </cc:Work>
  </rdf:RDF>
 </metadata>
 <defs>
  <style type="text/css">*{stroke-linejoin: round; stroke-linecap: butt}</style>
 </defs>
 <g id="figure_1">
  <g id="patch_1">
   <path d="M 0 499.069384 
L 638.974438 499.069384 
L 638.974438 0 
L 0 0 
z
" style="fill: #f6f1e6"/>
  </g>
  <g id="axes_1">
   <g id="patch_2">
    <path d="M 181.918437 377.301071 
L 631.774438 377.301071 
L 631.774438 93.333071 
L 181.918437 93.333071 
z
" style="fill: #f6f1e6"/>
   </g>
   <g id="matplotlib.axis_1">
    <g id="xtick_1">
     <g id="line2d_1">
      <path d="M 181.918437 377.301071 
L 181.918437 93.333071 
" clip-path="url(#p4824f31afb)" style="fill: none; stroke: #e3dbc9; stroke-opacity: 0.7; stroke-width: 0.8; stroke-linecap: square"/>
     </g>
     <g id="text_1">
      <text style="fill: #807a6f; font: 11px 'Charter', 'Georgia', 'DejaVu Serif'; text-anchor: middle" x="181.918437" y="388.894665" transform="rotate(-0 181.918437 388.894665)">0%</text>
     </g>
    </g>
    <g id="xtick_2">
     <g id="line2d_2">
      <path d="M 277.226912 377.301071 
L 277.226912 93.333071 
" clip-path="url(#p4824f31afb)" style="fill: none; stroke: #e3dbc9; stroke-opacity: 0.7; stroke-width: 0.8; stroke-linecap: square"/>
     </g>
     <g id="text_2">
      <text style="fill: #807a6f; font: 11px 'Charter', 'Georgia', 'DejaVu Serif'; text-anchor: middle" x="277.226912" y="388.894665" transform="rotate(-0 277.226912 388.894665)">25%</text>
     </g>
    </g>
    <g id="xtick_3">
     <g id="line2d_3">
      <path d="M 372.535387 377.301071 
L 372.535387 93.333071 
" clip-path="url(#p4824f31afb)" style="fill: none; stroke: #e3dbc9; stroke-opacity: 0.7; stroke-width: 0.8; stroke-linecap: square"/>
     </g>
     <g id="text_3">
      <text style="fill: #807a6f; font: 11px 'Charter', 'Georgia', 'DejaVu Serif'; text-anchor: middle" x="372.535387" y="388.894665" transform="rotate(-0 372.535387 388.894665)">50%</text>
     </g>
    </g>
    <g id="xtick_4">
     <g id="line2d_4">
      <path d="M 467.843861 377.301071 
L 467.843861 93.333071 
" clip-path="url(#p4824f31afb)" style="fill: none; stroke: #e3dbc9; stroke-opacity: 0.7; stroke-width: 0.8; stroke-linecap: square"/>
     </g>
     <g id="text_4">
      <text style="fill: #807a6f; font: 11px 'Charter', 'Georgia', 'DejaVu Serif'; text-anchor: middle" x="467.843861" y="388.894665" transform="rotate(-0 467.843861 388.894665)">75%</text>
     </g>
    </g>
    <g id="xtick_5">
     <g id="line2d_5">
      <path d="M 563.152336 377.301071 
L 563.152336 93.333071 
" clip-path="url(#p4824f31afb)" style="fill: none; stroke: #e3dbc9; stroke-opacity: 0.7; stroke-width: 0.8; stroke-linecap: square"/>
     </g>
     <g id="text_5">
      <text style="fill: #807a6f; font: 11px 'Charter', 'Georgia', 'DejaVu Serif'; text-anchor: middle" x="563.152336" y="388.894665" transform="rotate(-0 563.152336 388.894665)">100%</text>
     </g>
    </g>
   </g>
   <g id="matplotlib.axis_2">
    <g id="ytick_1">
     <g id="text_6">
      <text style="fill: #1b1b1f; font: 11px 'Charter', 'Georgia', 'DejaVu Serif'; text-anchor: end" x="178.418437" y="109.803468" transform="rotate(-0 178.418437 109.803468)">Adversary Warning</text>
     </g>
    </g>
    <g id="ytick_2">
     <g id="text_7">
      <text style="fill: #1b1b1f; font: 11px 'Charter', 'Georgia', 'DejaVu Serif'; text-anchor: end" x="178.418437" y="145.299468" transform="rotate(-0 178.418437 145.299468)">Adversary Warning Criteria Context</text>
     </g>
    </g>
    <g id="ytick_3">
     <g id="text_8">
      <text style="fill: #1b1b1f; font: 11px 'Charter', 'Georgia', 'DejaVu Serif'; text-anchor: end" x="178.418437" y="180.795468" transform="rotate(-0 178.418437 180.795468)">Base</text>
     </g>
    </g>
    <g id="ytick_4">
     <g id="text_9">
      <text style="fill: #1b1b1f; font: 11px 'Charter', 'Georgia', 'DejaVu Serif'; text-anchor: end" x="178.418437" y="216.291468" transform="rotate(-0 178.418437 216.291468)">Criteria Context</text>
     </g>
    </g>
    <g id="ytick_5">
     <g id="text_10">
      <text style="fill: #1b1b1f; font: 11px 'Charter', 'Georgia', 'DejaVu Serif'; text-anchor: end" x="178.418437" y="251.787468" transform="rotate(-0 178.418437 251.787468)">Minimal</text>
     </g>
    </g>
    <g id="ytick_6">
     <g id="text_11">
      <text style="fill: #1b1b1f; font: 11px 'Charter', 'Georgia', 'DejaVu Serif'; text-anchor: end" x="178.418437" y="287.283468" transform="rotate(-0 178.418437 287.283468)">Minimal Adversary</text>
     </g>
    </g>
    <g id="ytick_7">
     <g id="text_12">
      <text style="fill: #1b1b1f; font: 11px 'Charter', 'Georgia', 'DejaVu Serif'; text-anchor: end" x="178.418437" y="322.779468" transform="rotate(-0 178.418437 322.779468)">Minimal Rubric</text>
     </g>
    </g>
    <g id="ytick_8">
     <g id="text_13">
      <text style="fill: #1b1b1f; font: 11px 'Charter', 'Georgia', 'DejaVu Serif'; text-anchor: end" x="178.418437" y="358.275468" transform="rotate(-0 178.418437 358.275468)">Minimal Rubric Adversary</text>
     </g>
    </g>
   </g>
   <g id="line2d_6">
    <path d="M 563.152336 105.756671 
L 563.152336 105.756671 
" clip-path="url(#p4824f31afb)" style="fill: none; stroke: #807a6f; stroke-opacity: 0.9; stroke-width: 0.9; stroke-linecap: square"/>
   </g>
   <g id="line2d_7">
    <path d="M 563.152336 141.252671 
L 563.152336 141.252671 
" clip-path="url(#p4824f31afb)" style="fill: none; stroke: #807a6f; stroke-opacity: 0.9; stroke-width: 0.9; stroke-linecap: square"/>
   </g>
   <g id="line2d_8">
    <path d="M 563.152336 176.748671 
L 563.152336 176.748671 
" clip-path="url(#p4824f31afb)" style="fill: none; stroke: #807a6f; stroke-opacity: 0.9; stroke-width: 0.9; stroke-linecap: square"/>
   </g>
   <g id="line2d_9">
    <path d="M 563.152336 212.244671 
L 563.152336 212.244671 
" clip-path="url(#p4824f31afb)" style="fill: none; stroke: #807a6f; stroke-opacity: 0.9; stroke-width: 0.9; stroke-linecap: square"/>
   </g>
   <g id="line2d_10">
    <path d="M 563.152336 247.740671 
L 563.152336 247.740671 
" clip-path="url(#p4824f31afb)" style="fill: none; stroke: #807a6f; stroke-opacity: 0.9; stroke-width: 0.9; stroke-linecap: square"/>
   </g>
   <g id="line2d_11">
    <path d="M 563.152336 283.236671 
L 563.152336 283.236671 
" clip-path="url(#p4824f31afb)" style="fill: none; stroke: #807a6f; stroke-opacity: 0.9; stroke-width: 0.9; stroke-linecap: square"/>
   </g>
   <g id="line2d_12">
    <path d="M 277.226912 318.732671 
L 563.152336 318.732671 
" clip-path="url(#p4824f31afb)" style="fill: none; stroke: #807a6f; stroke-opacity: 0.9; stroke-width: 0.9; stroke-linecap: square"/>
   </g>
   <g id="line2d_13">
    <path d="M 277.226912 354.228671 
L 563.152336 354.228671 
" clip-path="url(#p4824f31afb)" style="fill: none; stroke: #807a6f; stroke-opacity: 0.9; stroke-width: 0.9; stroke-linecap: square"/>
   </g>
   <g id="patch_3">
    <path d="M 181.918437 377.301071 
L 631.774438 377.301071 
" style="fill: none; stroke: #e3dbc9; stroke-width: 0.9; stroke-linejoin: miter; stroke-linecap: square"/>
   </g>
   <g id="text_14">
    <text style="fill: #1b1b1f; font: 700 14px 'Charter', 'Iowan Old Style', 'Hoefler Text', 'Georgia', 'DejaVu Serif'; text-anchor: start" x="578.401692" y="109.382452" transform="rotate(-0 578.401692 109.382452)">100%</text>
   </g>
   <g id="text_15">
    <text style="fill: #1b1b1f; font: 700 14px 'Charter', 'Iowan Old Style', 'Hoefler Text', 'Georgia', 'DejaVu Serif'; text-anchor: start" x="578.401692" y="144.878453" transform="rotate(-0 578.401692 144.878453)">100%</text>
   </g>
   <g id="text_16">
    <text style="fill: #1b1b1f; font: 700 14px 'Charter', 'Iowan Old Style', 'Hoefler Text', 'Georgia', 'DejaVu Serif'; text-anchor: start" x="578.401692" y="180.374453" transform="rotate(-0 578.401692 180.374453)">100%</text>
   </g>
   <g id="text_17">
    <text style="fill: #1b1b1f; font: 700 14px 'Charter', 'Iowan Old Style', 'Hoefler Text', 'Georgia', 'DejaVu Serif'; text-anchor: start" x="578.401692" y="215.870452" transform="rotate(-0 578.401692 215.870452)">100%</text>
   </g>
   <g id="text_18">
    <text style="fill: #1b1b1f; font: 700 14px 'Charter', 'Iowan Old Style', 'Hoefler Text', 'Georgia', 'DejaVu Serif'; text-anchor: start" x="578.401692" y="251.366453" transform="rotate(-0 578.401692 251.366453)">100%</text>
   </g>
   <g id="text_19">
    <text style="fill: #1b1b1f; font: 700 14px 'Charter', 'Iowan Old Style', 'Hoefler Text', 'Georgia', 'DejaVu Serif'; text-anchor: start" x="578.401692" y="286.862453" transform="rotate(-0 578.401692 286.862453)">100%</text>
   </g>
   <g id="text_20">
    <text style="fill: #1b1b1f; font: 700 14px 'Charter', 'Iowan Old Style', 'Hoefler Text', 'Georgia', 'DejaVu Serif'; text-anchor: start" x="578.401692" y="322.358453" transform="rotate(-0 578.401692 322.358453)">75%</text>
   </g>
   <g id="text_21">
    <text style="fill: #1b1b1f; font: 700 14px 'Charter', 'Iowan Old Style', 'Hoefler Text', 'Georgia', 'DejaVu Serif'; text-anchor: start" x="578.401692" y="357.854453" transform="rotate(-0 578.401692 357.854453)">75%</text>
   </g>
   <g id="text_22">
    <text style="fill: #807a6f; font: italic 9px 'Charter', 'Georgia', 'DejaVu Serif'; text-anchor: end" x="171.918437" y="122.087531" transform="rotate(-0 171.918437 122.087531)">n = 23</text>
   </g>
   <g id="text_23">
    <text style="fill: #807a6f; font: italic 9px 'Charter', 'Georgia', 'DejaVu Serif'; text-anchor: end" x="171.918437" y="157.583531" transform="rotate(-0 171.918437 157.583531)">n = 22</text>
   </g>
   <g id="text_24">
    <text style="fill: #807a6f; font: italic 9px 'Charter', 'Georgia', 'DejaVu Serif'; text-anchor: end" x="171.918437" y="193.079531" transform="rotate(-0 171.918437 193.079531)">n = 23</text>
   </g>
   <g id="text_25">
    <text style="fill: #807a6f; font: italic 9px 'Charter', 'Georgia', 'DejaVu Serif'; text-anchor: end" x="171.918437" y="228.575531" transform="rotate(-0 171.918437 228.575531)">n = 22</text>
   </g>
   <g id="text_26">
    <text style="fill: #807a6f; font: italic 9px 'Charter', 'Georgia', 'DejaVu Serif'; text-anchor: end" x="171.918437" y="264.071531" transform="rotate(-0 171.918437 264.071531)">n = 4</text>
   </g>
   <g id="text_27">
    <text style="fill: #807a6f; font: italic 9px 'Charter', 'Georgia', 'DejaVu Serif'; text-anchor: end" x="171.918437" y="299.567531" transform="rotate(-0 171.918437 299.567531)">n = 4</text>
   </g>
   <g id="text_28">
    <text style="fill: #807a6f; font: italic 9px 'Charter', 'Georgia', 'DejaVu Serif'; text-anchor: end" x="171.918437" y="335.063531" transform="rotate(-0 171.918437 335.063531)">n = 4</text>
   </g>
   <g id="text_29">
    <text style="fill: #807a6f; font: italic 9px 'Charter', 'Georgia', 'DejaVu Serif'; text-anchor: end" x="171.918437" y="370.559531" transform="rotate(-0 171.918437 370.559531)">n = 4</text>
   </g>
   <g id="text_30">
    <text style="fill: #a6342b; font: 700 9px 'Charter', 'Iowan Old Style', 'Hoefler Text', 'Georgia', 'DejaVu Serif'; text-anchor: start" x="181.918437" y="13.822031" transform="rotate(-0 181.918437 13.822031)">A  G  E  N  T  L  A  B     ·     B  E  H  A  V  I  O  R  A  L     E  X  P  E  R  I  M  E  N  T</text>
   </g>
   <g id="text_31">
    <text style="fill: #1b1b1f; font: 700 20px 'Charter', 'Iowan Old Style', 'Hoefler Text', 'Georgia', 'DejaVu Serif'; text-anchor: start" x="181.918437" y="47.898191" transform="rotate(-0 181.918437 47.898191)">Committed</text>
   </g>
   <g id="text_32">
    <text style="fill: #807a6f; font: italic 11px 'Charter', 'Iowan Old Style', 'Hoefler Text', 'Georgia', 'DejaVu Serif'; text-anchor: start" x="181.918437" y="76.294991" transform="rotate(-0 181.918437 76.294991)">gpt-5.5 · medium  ·  8 variants × 10 tasks</text>
   </g>
   <g id="PathCollection_1">
    <defs>
     <path id="mebc4f8f021" d="M 0 5.91608 
C 1.568963 5.91608 3.073876 5.292724 4.1833 4.1833 
C 5.292724 3.073876 5.91608 1.568963 5.91608 0 
C 5.91608 -1.568963 5.292724 -3.073876 4.1833 -4.1833 
C 3.073876 -5.292724 1.568963 -5.91608 0 -5.91608 
C -1.568963 -5.91608 -3.073876 -5.292724 -4.1833 -4.1833 
C -5.292724 -3.073876 -5.91608 -1.568963 -5.91608 0 
C -5.91608 1.568963 -5.292724 3.073876 -4.1833 4.1833 
C -3.073876 5.292724 -1.568963 5.91608 0 5.91608 
z
" style="stroke: #f6f1e6; stroke-width: 2"/>
    </defs>
    <g clip-path="url(#p4824f31afb)">
     <use xlink:href="#mebc4f8f021" x="563.152336" y="105.756671" style="fill: #465c7e; stroke: #f6f1e6; stroke-width: 2"/>
    </g>
   </g>
   <g id="PathCollection_2">
    <defs>
     <path id="m48dc492dd1" d="M 0 5.91608 
C 1.568963 5.91608 3.073876 5.292724 4.1833 4.1833 
C 5.292724 3.073876 5.91608 1.568963 5.91608 0 
C 5.91608 -1.568963 5.292724 -3.073876 4.1833 -4.1833 
C 3.073876 -5.292724 1.568963 -5.91608 0 -5.91608 
C -1.568963 -5.91608 -3.073876 -5.292724 -4.1833 -4.1833 
C -5.292724 -3.073876 -5.91608 -1.568963 -5.91608 0 
C -5.91608 1.568963 -5.292724 3.073876 -4.1833 4.1833 
C -3.073876 5.292724 -1.568963 5.91608 0 5.91608 
z
" style="stroke: #f6f1e6; stroke-width: 2"/>
    </defs>
    <g clip-path="url(#p4824f31afb)">
     <use xlink:href="#m48dc492dd1" x="563.152336" y="141.252671" style="fill: #a6342b; stroke: #f6f1e6; stroke-width: 2"/>
    </g>
   </g>
   <g id="PathCollection_3">
    <defs>
     <path id="mc59d88622e" d="M 0 5.91608 
C 1.568963 5.91608 3.073876 5.292724 4.1833 4.1833 
C 5.292724 3.073876 5.91608 1.568963 5.91608 0 
C 5.91608 -1.568963 5.292724 -3.073876 4.1833 -4.1833 
C 3.073876 -5.292724 1.568963 -5.91608 0 -5.91608 
C -1.568963 -5.91608 -3.073876 -5.292724 -4.1833 -4.1833 
C -5.292724 -3.073876 -5.91608 -1.568963 -5.91608 0 
C -5.91608 1.568963 -5.292724 3.073876 -4.1833 4.1833 
C -3.073876 5.292724 -1.568963 5.91608 0 5.91608 
z
" style="stroke: #f6f1e6; stroke-width: 2"/>
    </defs>
    <g clip-path="url(#p4824f31afb)">
     <use xlink:href="#mc59d88622e" x="563.152336" y="176.748671" style="fill: #7a6b8e; stroke: #f6f1e6; stroke-width: 2"/>
    </g>
   </g>
   <g id="PathCollection_4">
    <defs>
     <path id="mfde5598009" d="M 0 5.91608 
C 1.568963 5.91608 3.073876 5.292724 4.1833 4.1833 
C 5.292724 3.073876 5.91608 1.568963 5.91608 0 
C 5.91608 -1.568963 5.292724 -3.073876 4.1833 -4.1833 
C 3.073876 -5.292724 1.568963 -5.91608 0 -5.91608 
C -1.568963 -5.91608 -3.073876 -5.292724 -4.1833 -4.1833 
C -5.292724 -3.073876 -5.91608 -1.568963 -5.91608 0 
C -5.91608 1.568963 -5.292724 3.073876 -4.1833 4.1833 
C -3.073876 5.292724 -1.568963 5.91608 0 5.91608 
z
" style="stroke: #f6f1e6; stroke-width: 2"/>
    </defs>
    <g clip-path="url(#p4824f31afb)">
     <use xlink:href="#mfde5598009" x="563.152336" y="212.244671" style="fill: #9c7a2f; stroke: #f6f1e6; stroke-width: 2"/>
    </g>
   </g>
   <g id="PathCollection_5">
    <defs>
     <path id="mdf1637fb19" d="M 0 5.91608 
C 1.568963 5.91608 3.073876 5.292724 4.1833 4.1833 
C 5.292724 3.073876 5.91608 1.568963 5.91608 0 
C 5.91608 -1.568963 5.292724 -3.073876 4.1833 -4.1833 
C 3.073876 -5.292724 1.568963 -5.91608 0 -5.91608 
C -1.568963 -5.91608 -3.073876 -5.292724 -4.1833 -4.1833 
C -5.292724 -3.073876 -5.91608 -1.568963 -5.91608 0 
C -5.91608 1.568963 -5.292724 3.073876 -4.1833 4.1833 
C -3.073876 5.292724 -1.568963 5.91608 0 5.91608 
z
" style="stroke: #f6f1e6; stroke-width: 2"/>
    </defs>
    <g clip-path="url(#p4824f31afb)">
     <use xlink:href="#mdf1637fb19" x="563.152336" y="247.740671" style="fill: #3e7060; stroke: #f6f1e6; stroke-width: 2"/>
    </g>
   </g>
   <g id="PathCollection_6">
    <defs>
     <path id="m3c9d2b1a5d" d="M 0 5.91608 
C 1.568963 5.91608 3.073876 5.292724 4.1833 4.1833 
C 5.292724 3.073876 5.91608 1.568963 5.91608 0 
C 5.91608 -1.568963 5.292724 -3.073876 4.1833 -4.1833 
C 3.073876 -5.292724 1.568963 -5.91608 0 -5.91608 
C -1.568963 -5.91608 -3.073876 -5.292724 -4.1833 -4.1833 
C -5.292724 -3.073876 -5.91608 -1.568963 -5.91608 0 
C -5.91608 1.568963 -5.292724 3.073876 -4.1833 4.1833 
C -3.073876 5.292724 -1.568963 5.91608 0 5.91608 
z
" style="stroke: #f6f1e6; stroke-width: 2"/>
    </defs>
    <g clip-path="url(#p4824f31afb)">
     <use xlink:href="#m3c9d2b1a5d" x="563.152336" y="283.236671" style="fill: #8b4a52; stroke: #f6f1e6; stroke-width: 2"/>
    </g>
   </g>
   <g id="PathCollection_7">
    <defs>
     <path id="maabc80c312" d="M 0 5.91608 
C 1.568963 5.91608 3.073876 5.292724 4.1833 4.1833 
C 5.292724 3.073876 5.91608 1.568963 5.91608 0 
C 5.91608 -1.568963 5.292724 -3.073876 4.1833 -4.1833 
C 3.073876 -5.292724 1.568963 -5.91608 0 -5.91608 
C -1.568963 -5.91608 -3.073876 -5.292724 -4.1833 -4.1833 
C -5.292724 -3.073876 -5.91608 -1.568963 -5.91608 0 
C -5.91608 1.568963 -5.292724 3.073876 -4.1833 4.1833 
C -3.073876 5.292724 -1.568963 5.91608 0 5.91608 
z
" style="stroke: #f6f1e6; stroke-width: 2"/>
    </defs>
    <g clip-path="url(#p4824f31afb)">
     <use xlink:href="#maabc80c312" x="467.843861" y="318.732671" style="fill: #5e6e47; stroke: #f6f1e6; stroke-width: 2"/>
    </g>
   </g>
   <g id="PathCollection_8">
    <defs>
     <path id="m596db3bc38" d="M 0 5.91608 
C 1.568963 5.91608 3.073876 5.292724 4.1833 4.1833 
C 5.292724 3.073876 5.91608 1.568963 5.91608 0 
C 5.91608 -1.568963 5.292724 -3.073876 4.1833 -4.1833 
C 3.073876 -5.292724 1.568963 -5.91608 0 -5.91608 
C -1.568963 -5.91608 -3.073876 -5.292724 -4.1833 -4.1833 
C -5.292724 -3.073876 -5.91608 -1.568963 -5.91608 0 
C -5.91608 1.568963 -5.292724 3.073876 -4.1833 4.1833 
C -3.073876 5.292724 -1.568963 5.91608 0 5.91608 
z
" style="stroke: #f6f1e6; stroke-width: 2"/>
    </defs>
    <g clip-path="url(#p4824f31afb)">
     <use xlink:href="#m596db3bc38" x="467.843861" y="354.228671" style="fill: #7f5b2e; stroke: #f6f1e6; stroke-width: 2"/>
    </g>
   </g>
  </g>
  <g id="text_33">
   <text style="fill: #807a6f; font: italic 9px 'Charter', 'Georgia', 'DejaVu Serif'; text-anchor: start" x="57.732838" y="489.909071" transform="rotate(-0 57.732838 489.909071)">Whiskers are bootstrapped 95% confidence intervals (5,000 resamples over gradeable trials).</text>
  </g>
 </g>
 <defs>
  <clipPath id="p4824f31afb">
   <rect x="181.918437" y="93.333071" width="449.856" height="283.968"/>
  </clipPath>
 </defs>
</svg>
