<svg height="422" aria-roledescription="stateDiagram" role="graphics-document document" viewBox="0 0.3112802505493164 440.2787780761719 422.0321350097656" style="max-width: 440.279px; background-color: white;" class="statediagram" xmlns:xlink="http://www.w3.org/1999/xlink" xmlns="http://www.w3.org/2000/svg" width="440" id="my-svg"><style>#my-svg{font-family:Georgia,serif;font-size:16px;fill:#1B1B1F;}@keyframes edge-animation-frame{from{stroke-dashoffset:0;}}@keyframes dash{to{stroke-dashoffset:0;}}#my-svg .edge-animation-slow{stroke-dasharray:9,5!important;stroke-dashoffset:900;animation:dash 50s linear infinite;stroke-linecap:round;}#my-svg .edge-animation-fast{stroke-dasharray:9,5!important;stroke-dashoffset:900;animation:dash 20s linear infinite;stroke-linecap:round;}#my-svg .error-icon{fill:hsl(221.25, 47.0588235294%, 98.3333333333%);}#my-svg .error-text{fill:rgb(6.2500000001, 5.0000000001, 2.25);stroke:rgb(6.2500000001, 5.0000000001, 2.25);}#my-svg .edge-thickness-normal{stroke-width:1px;}#my-svg .edge-thickness-thick{stroke-width:3.5px;}#my-svg .edge-pattern-solid{stroke-dasharray:0;}#my-svg .edge-thickness-invisible{stroke-width:0;fill:none;}#my-svg .edge-pattern-dashed{stroke-dasharray:3;}#my-svg .edge-pattern-dotted{stroke-dasharray:2;}#my-svg .marker{fill:#1B1B1F;stroke:#1B1B1F;}#my-svg .marker.cross{stroke:#1B1B1F;}#my-svg svg{font-family:Georgia,serif;font-size:16px;}#my-svg p{margin:0;}#my-svg defs #statediagram-barbEnd{fill:#1B1B1F;stroke:#1B1B1F;}#my-svg g.stateGroup text{fill:#807A6F;stroke:none;font-size:10px;}#my-svg g.stateGroup text{fill:#1B1B1F;stroke:none;font-size:10px;}#my-svg g.stateGroup .state-title{font-weight:bolder;fill:#1B1B1F;}#my-svg g.stateGroup rect{fill:#F6F1E6;stroke:#807A6F;}#my-svg g.stateGroup line{stroke:#1B1B1F;stroke-width:1;}#my-svg .transition{stroke:#1B1B1F;stroke-width:1;fill:none;}#my-svg .stateGroup .composit{fill:#f4f4f4;border-bottom:1px;}#my-svg .stateGroup .alt-composit{fill:#e0e0e0;border-bottom:1px;}#my-svg .state-note{stroke:hsl(52.6829268293, 60%, 73.9215686275%);fill:#fff5ad;}#my-svg .state-note text{fill:#333;stroke:none;font-size:10px;}#my-svg .stateLabel .box{stroke:none;stroke-width:0;fill:#F6F1E6;opacity:0.5;}#my-svg .edgeLabel .label rect{fill:#F6F1E6;opacity:0.5;}#my-svg .edgeLabel{background-color:#F6F1E6;text-align:center;}#my-svg .edgeLabel p{background-color:#F6F1E6;}#my-svg .edgeLabel rect{opacity:0.5;background-color:#F6F1E6;fill:#F6F1E6;}#my-svg .edgeLabel .label text{fill:#1B1B1F;}#my-svg .label div .edgeLabel{color:#1B1B1F;}#my-svg .stateLabel text{fill:#1B1B1F;font-size:10px;font-weight:bold;}#my-svg .node circle.state-start{fill:#1B1B1F;stroke:#1B1B1F;}#my-svg .node .fork-join{fill:#1B1B1F;stroke:#1B1B1F;}#my-svg .node circle.state-end{fill:#807A6F;stroke:#f4f4f4;stroke-width:1.5;}#my-svg .end-state-inner{fill:#f4f4f4;stroke-width:1.5;}#my-svg .node rect{fill:#F6F1E6;stroke:#807A6F;stroke-width:1px;}#my-svg .node polygon{fill:#F6F1E6;stroke:#807A6F;stroke-width:1px;}#my-svg #statediagram-barbEnd{fill:#1B1B1F;}#my-svg .statediagram-cluster rect{fill:#F6F1E6;stroke:#807A6F;stroke-width:1px;}#my-svg .cluster-label,#my-svg .nodeLabel{color:#1B1B1F;}#my-svg .statediagram-cluster rect.outer{rx:5px;ry:5px;}#my-svg .statediagram-state .divider{stroke:#807A6F;}#my-svg .statediagram-state .title-state{rx:5px;ry:5px;}#my-svg .statediagram-cluster.statediagram-cluster .inner{fill:#f4f4f4;}#my-svg .statediagram-cluster.statediagram-cluster-alt .inner{fill:hsl(221.25, 47.0588235294%, 98.3333333333%);}#my-svg .statediagram-cluster .inner{rx:0;ry:0;}#my-svg .statediagram-state rect.basic{rx:5px;ry:5px;}#my-svg .statediagram-state rect.divider{stroke-dasharray:10,10;fill:hsl(221.25, 47.0588235294%, 98.3333333333%);}#my-svg .note-edge{stroke-dasharray:5;}#my-svg .statediagram-note rect{fill:#fff5ad;stroke:hsl(52.6829268293, 60%, 73.9215686275%);stroke-width:1px;rx:0;ry:0;}#my-svg .statediagram-note rect{fill:#fff5ad;stroke:hsl(52.6829268293, 60%, 73.9215686275%);stroke-width:1px;rx:0;ry:0;}#my-svg .statediagram-note text{fill:#333;}#my-svg .statediagram-note .nodeLabel{color:#333;}#my-svg .statediagram .edgeLabel{color:red;}#my-svg #dependencyStart,#my-svg #dependencyEnd{fill:#1B1B1F;stroke:#1B1B1F;stroke-width:1;}#my-svg .statediagramTitleText{text-anchor:middle;font-size:18px;fill:#1B1B1F;}#my-svg :root{--mermaid-font-family:"trebuchet ms",verdana,arial,sans-serif;}</style><g><defs><marker orient="auto" markerUnits="userSpaceOnUse" markerHeight="14" markerWidth="20" refY="7" refX="19" id="my-svg_stateDiagram-barbEnd"><path d="M 19,7 L9,13 L14,7 L9,1 Z"/></marker></defs><g class="root"><g class="clusters"/><g class="edgePaths"><path marker-end="url(#my-svg_stateDiagram-barbEnd)" style=";fill:none" class="edge-thickness-normal edge-pattern-solid transition transition" id="edge0" fill="none" stroke-width="1" stroke="#000" d="M232.15020648072763 22.64180460546268 C232.13627519077838 23.556935244614866, 232.12951997920572 24.296825497552685, 232.09182671334796 26.951137180671044 M232.05515582209674 22.5383705084277 C232.1262688900014 24.00351125793699, 232.08686830377562 25.379104800871787, 232.13142397178757 26.867736634757584 M232.076 26.828 C231.83819548504695 30.791795756707824, 232.1170506038649 39.221264142886675, 232.01484625339162 48.39698327098369 M232.20740080724278 26.829666429936537 C231.67606101728276 30.927150055507624, 232.19395113860423 39.02707050049977, 232.33758147235852 48.50371288737476 M232.076 48.039 C231.54921451023006 56.439808400848115, 232.53670703410953 64.96308105887239, 231.54301081247846 68.98716057018466 M231.52855731998332 48.32690889937037 C231.5573227498981 56.905868724364346, 231.61427850750837 65.08312499399976, 232.73966531329708 68.61004275596947 M232.1933944482753 68.94904227875725 C232.18839458233947 70.42899961968324, 232.10754970084773 72.0282564073031, 232.12272626103646 73.19019035477567 M232.05257332111134 69.02025421144981 C232.09552521141367 70.46754652587082, 232.12608543026312 71.85111168170887, 232.13688611646825 73.1059546179472"/><path marker-end="url(#my-svg_stateDiagram-barbEnd)" style=";fill:none" class="edge-thickness-normal edge-pattern-solid transition transition" id="edge1" fill="none" stroke-width="1" stroke="#000" d="M206.74165879173404 116.04113615113963 C205.03100824620427 117.8729387518947, 202.7288749475473 119.88061427581754, 199.5616279681797 122.67378035667338 M206.96442485058125 116.1373758220976 C205.4659103112524 117.42792620155745, 203.94300422494356 118.6817157096098, 199.71370960187565 122.41037514037079 M199.78 122.416 C193.1382255531399 128.1761255076301, 178.02968226795582 140.317657889131, 171.46606832291675 153.83169687282722 M199.45729784447317 121.90941757183299 C193.0591742818106 128.88585535625106, 178.51080336959055 140.43278037506045, 171.0946615980734 152.77154699650694 M171.047 153.249 C164.08136787898448 165.6543982397474, 164.2498324684866 177.42659216829006, 163.6236249145976 184.67993707260942 M170.96328212958417 153.83685159859527 C163.61588451968626 165.73159905606803, 164.47155139126835 178.29612422533611, 163.2712868644905 184.11331904407896 M163.92375124463192 184.162730739008 C163.70399467963057 185.8100736617643, 163.97560719410805 187.44314313799623, 163.7656996605649 190.1183000408812 M163.95100795521228 184.04343369378398 C163.83071115967647 185.3034471706172, 163.86363412806628 186.69664220487113, 163.83715025309652 190.2184566701713"/><path marker-end="url(#my-svg_stateDiagram-barbEnd)" style=";fill:none" class="edge-thickness-normal edge-pattern-solid transition transition" id="edge2" fill="none" stroke-width="1" stroke="#000" d="M132.17907156801627 232.84891150791867 C128.46322049622356 235.23337141209683, 125.3064788008643 237.42479830818726, 122.93420539589214 238.8496030214442 M132.17070217135606 232.6807668618636 C129.6854843840594 234.2708557151451, 126.93058259080826 236.09359619293366, 123.03271154660992 238.85920757203783 M123.104 238.766 C114.26504116276922 244.38644501815855, 95.34430853431166 257.7988192673293, 86.10814017159447 269.0061236746114 M123.40651346684336 238.4037033730552 C114.01924377001336 245.53017722222714, 96.11787749162754 257.1194496879411, 85.95103434071687 269.551277668 M86.333 269.6 C76.79714921533213 282.41351975382554, 77.71217035351269 293.89596490206367, 77.29219464324612 300.25841775013197 M86.52539469274818 269.2593516852595 C76.56140507897231 281.90093764535277, 77.10664267736583 293.88609291095395, 77.12897356449993 301.0086156402032 M77.1622122324185 300.3312259663332 C77.06741767781678 301.8506407297427, 77.07232614740913 303.5501122272725, 77.3046047566287 306.60624037964567 M77.06599948896657 300.43800409378684 C77.07165774428742 302.02783920260487, 77.11287728181848 303.7400767116798, 77.17955199341287 306.6367354204292"/><path marker-end="url(#my-svg_stateDiagram-barbEnd)" style=";fill:none" class="edge-thickness-normal edge-pattern-solid transition transition" id="edge3" fill="none" stroke-width="1" stroke="#000" d="M195.3020490891413 232.34684363614423 C197.9075297692366 234.4442015827125, 200.02402628887185 235.36184583580382, 204.75972228818821 238.73443724773048 M195.46776553386837 232.53878203396647 C197.23960471041593 233.83174932890833, 199.43720738278506 235.18894587845782, 204.6268989138221 238.87051861619364 M204.622 238.766 C213.96700715924783 245.45189728359352, 232.640536247459 257.4917724065646, 248.06117924708644 269.8017577903516 M204.63674555970445 238.7161972115236 C213.94115112806693 244.49754646481964, 232.7194322126488 257.68365597955227, 249.0566663263133 269.3611466592288 M248.613 269.627 C265.50540393460676 281.59804579324117, 279.19689698038 294.0317855891346, 287.0561386771206 300.33695677898504 M249.16653634740666 269.03651615700124 C265.6995689411317 282.4424472437951, 279.403812929173 294.7683204865764, 286.9743274117336 300.17294565977375 M286.83531095306455 300.7367464809888 C289.29122596388754 302.7526331068733, 291.9310399827602 304.7984347951738, 293.8255072995337 306.88984560659725 M286.60262385616403 300.5136489803096 C289.07880301459994 302.57795011419677, 291.304568651263 304.4395976266409, 293.91174848015646 306.85162633705113"/><path marker-end="url(#my-svg_stateDiagram-barbEnd)" style=";fill:none" class="edge-thickness-normal edge-pattern-solid transition transition" id="edge4" fill="none" stroke-width="1" stroke="#000" d="M338.0384229425123 307.0045489762995 C339.8558051694649 304.7217287264185, 341.652540885556 302.5543022391831, 343.56593882330566 300.3592343250459 M337.757819214412 306.68793018406353 C339.4630115078094 304.8694217502884, 341.21588614745053 303.00483095010344, 343.24573917487965 300.47422567976787 M343.35 300.571 C349.0096657879086 294.69469842613756, 360.12673535417395 281.9399456999033, 365.6343938594852 266.2915133151603 M343.55707361233584 300.90404926676183 C348.55552379527217 294.3445524904975, 360.15988109436114 281.9150133011254, 365.0352035696637 266.0694551772957 M365.43 266.098 C370.786814122948 250.21339528761513, 371.37335780196605 231.1688601976913, 371.2617478788478 210.93093747868312 M365.93677885855635 266.39011281745394 C370.36767783823774 250.57676904211013, 370.8520084179239 230.64897942429414, 370.9662524047482 211.01527664702598 M370.951 211.425 C370.5004462291331 192.3349872783899, 370.7607536375204 173.0532299557366, 354.87418871809035 156.75127484439852 M371.38089878981003 211.6644707318306 C370.52261011196384 191.9289269805588, 370.37173948766156 172.11572340507936, 355.47105870970495 156.33430685464174 M355.431 156.401 C339.78389753621855 139.71250366003235, 309.1572213109529 127.46285726535791, 292.94900555514886 120.61460611998457 M354.9300187857031 156.5815832453596 C339.5950270804424 140.83382591071984, 309.1089591244274 127.06564561050921, 293.5179992492949 120.67318792299805 M293.640606960192 120.11045605291181 C290.38865777065865 119.21874357002483, 286.687834263305 118.12588292283864, 277.48251224767694 114.2254546321062 M293.19368269140193 120.68413481887372 C287.56149367028746 118.1486590269779, 282.0713586461783 115.53459947263913, 277.7517889707137 114.0341592998359"/><path marker-end="url(#my-svg_stateDiagram-barbEnd)" style=";fill:none" class="edge-thickness-normal edge-pattern-solid transition transition" id="edge5" fill="none" stroke-width="1" stroke="#000" d="M77.13493422822539 349.60088372914896 C77.07080025744037 350.91309510298447, 77.12783886046442 352.1201483719914, 77.17228830570038 353.92102552934125 M77.14546224447224 349.6146683557547 C77.16610839921385 351.2585423242032, 77.14749423971364 352.81760562447386, 77.19646368639553 353.8687901821656 M77.141 353.808 C77.71161448400255 358.42158770928114, 77.31697673123931 366.27604266190826, 76.95420672061778 375.2762554203813 M77.49349177343514 354.3660758957592 C77.78551681257478 357.696951025712, 76.94019541558166 365.82598573523256, 77.80596649204678 374.37773608639856 M77.141 374.698 C76.5517502960042 382.49397562841267, 77.5435929696763 391.68932843606206, 76.75193196617458 395.3599091331713 M77.37824443156038 374.1581068193002 C76.68846355127668 383.01921527046505, 77.23436990978855 391.0949577438923, 76.52192249954659 395.2944499370471 M77.10833208056673 395.87983812346164 C77.03244548419634 397.2107079046454, 77.23974596391217 398.48864442862924, 77.24016367313581 399.90211764087405 M77.11471692120396 395.7178292408309 C77.08983084889468 397.350739366139, 77.17721851070306 398.89009041571865, 77.10819292701915 399.9376483722128"/></g><g class="edgeLabels"><g class="edgeLabel"><g transform="translate(0, 0)" class="label"><foreignObject height="0" width="0"><div style="display: table-cell; white-space: nowrap; line-height: 1.5; max-width: 200px; text-align: center;" class="labelBkg" xmlns="http://www.w3.org/1999/xhtml"><span class="edgeLabel"></span></div></foreignObject></g></g><g transform="translate(163.86328125, 153.2494421005249)" class="edgeLabel"><g transform="translate(-30.046875, -12)" class="label"><foreignObject height="24" width="60.09375"><div style="display: table-cell; white-space: nowrap; line-height: 1.5; max-width: 200px; text-align: center;" class="labelBkg" xmlns="http://www.w3.org/1999/xhtml"><span class="edgeLabel"><p>dispatch</p></span></div></foreignObject></g></g><g transform="translate(77.140625, 269.59968090057373)" class="edgeLabel"><g transform="translate(-69.140625, -12)" class="label"><foreignObject height="24" width="138.28125"><div style="display: table-cell; white-space: nowrap; line-height: 1.5; max-width: 200px; text-align: center;" class="labelBkg" xmlns="http://www.w3.org/1999/xhtml"><span class="edgeLabel"><p>transaction commit</p></span></div></foreignObject></g></g><g transform="translate(250.5859375, 269.59968090057373)" class="edgeLabel"><g transform="translate(-84.3046875, -12)" class="label"><foreignObject height="24" width="168.609375"><div style="display: table-cell; white-space: nowrap; line-height: 1.5; max-width: 200px; text-align: center;" class="labelBkg" xmlns="http://www.w3.org/1999/xhtml"><span class="edgeLabel"><p>partial write rolled back</p></span></div></foreignObject></g></g><g transform="translate(370.95065116882324, 211.42456150054932)" class="edgeLabel"><g transform="translate(-61.328125, -12)" class="label"><foreignObject height="24" width="122.65625"><div style="display: table-cell; white-space: nowrap; line-height: 1.5; max-width: 200px; text-align: center;" class="labelBkg" xmlns="http://www.w3.org/1999/xhtml"><span class="edgeLabel"><p>recover + resume</p></span></div></foreignObject></g></g><g class="edgeLabel"><g transform="translate(0, 0)" class="label"><foreignObject height="0" width="0"><div style="display: table-cell; white-space: nowrap; line-height: 1.5; max-width: 200px; text-align: center;" class="labelBkg" xmlns="http://www.w3.org/1999/xhtml"><span class="edgeLabel"></span></div></foreignObject></g></g></g><g class="nodes"><g transform="translate(232.07565116882324, 15.56675100326538)" id="state-root_start-0" class="node default"><g height="14" width="14" r="7" class="state-start"><path fill="none" stroke-width="2" stroke="#1B1B1F" d="M2.493444662608372 6.318772841499136 C2.493444662608372 6.318772841499136, 2.493444662608372 6.318772841499136, 2.493444662608372 6.318772841499136 M2.493444662608372 6.318772841499136 C2.493444662608372 6.318772841499136, 2.493444662608372 6.318772841499136, 2.493444662608372 6.318772841499136 M6.1023882545571295 -1.022269488006045 C3.6611399307805366 0.03909770947074942, 0.9366067627672916 2.009444580532566, -4.339247698352811 5.884549180194727 M6.3724744259339925 -1.0510174896232565 C3.1494325118512068 0.7634484945797476, 0.010718482115410821 3.364125026548991, -4.040136114716297 5.171640195858301 M4.6216741982780345 -3.8781765790001645 C0.533767629769973 -1.257495929485948, -3.1819333002429664 -0.036671572970806365, -7.575036431904753 2.4949839052423797 M4.758139359776411 -4.451403601863586 C1.0745559602925947 -1.7467453932607069, -2.9737067707683 0.33208683576120157, -6.361769519668383 1.952222281982857 M1.5272350802834536 -6.98908424126853 C-0.2725965078413576 -5.311682350274346, -1.6191171930059443 -4.616779356861153, -6.8922768218202695 -1.8655575222205565 M1.3895211143406974 -7.255471169291115 C-1.527770271367197 -5.17677020596527, -4.669272858654766 -3.165806372649808, -7.287342334019608 -2.234494838366883"/><path fill="none" stroke-width="1" stroke="#1B1B1F" d="M0.7353723986025494 -7.074854758920872 C2.1355685772139386 -6.8726175141609875, 3.306409363706143 -5.801880405026996, 4.453007763885113 -4.611815118686469 C5.599606164064083 -3.4217498323459417, 7.365361232693192 -1.394319469997312, 7.61496279967637 0.06553695912228791 C7.864564366659548 1.5253933882418877, 6.82869816577157 3.0909754864379364, 5.950617165784182 4.147323456031132 C5.0725361657967944 5.203671425624328, 3.808577866143369 6.038996273030083, 2.3464767997520406 6.403624776681463 C0.8843757333607121 6.768253280332843, -1.4234242922957294 6.9411457900551445, -2.8219892325637894 6.335094477939414 C-4.220554172831849 5.729043165823684, -5.450051418015946 4.116390412309442, -6.04491284185632 2.767316903987079 C-6.639774265696694 1.4182433956647162, -6.819767993634844 -0.4330487068186335, -6.391157775606035 -1.7593465719947634 C-5.962547557577226 -3.0856444371708935, -4.730215820405893 -4.3298374515682445, -3.473251533683465 -5.1904702870697 C-2.216287246961037 -6.051103122571155, 0.15409119884841627 -6.673086533877932, 1.1506279447285317 -6.923143585003498 C2.1471646906086472 -7.173200636129064, 2.560224538812604 -6.8556572764924075, 2.505968941597228 -6.690812593823097 M1.802252430340236 -7.090183091637266 C3.437225286361583 -6.787303984653611, 5.32597950650747 -5.753083850721835, 6.29851614355165 -4.595592723178045 C7.27105278059583 -3.4381015956342553, 7.726461599065788 -1.7651975748712827, 7.637472252605315 -0.14523632637452522 C7.548482906144843 1.4747249221222325, 6.824850013098005 3.7877691446813504, 5.764580064788817 5.124174767802501 C4.704310116479628 6.460580390923651, 2.8794152256696743 7.775981936639302, 1.2758525627501842 7.873197412352375 C-0.3277101001693059 7.9704128880654475, -2.5859023578041276 6.5787781168736625, -3.8567959127281233 5.707467622080937 C-5.127689467652119 4.836157127288212, -5.8944010161179765 4.204063218378554, -6.34950876679379 2.645334443596023 C-6.804616517469604 1.086605668813492, -7.1691691565852125 -2.248982617571937, -6.587442416783005 -3.6449050266142504 C-6.005715676980797 -5.040827435656563, -4.357836914199706 -5.1749704150938145, -2.8591483279805425 -5.730200010657857 C-1.360459741761379 -6.285429606221899, 1.5278831952692422 -6.804627086768536, 2.4046891005319755 -6.976282599998503 C3.2814950057947088 -7.147938113228469, 2.5492992024373753 -6.968977791793295, 2.4016871035958576 -6.7601330900376535"/></g></g><g transform="translate(232.07565116882324, 94.69147205352783)" id="state-Scheduled-4" class="rough-node  statediagram-state"><g style="" class="basic label-container"><path stroke-dasharray="0 0" fill="none" stroke-width="4" stroke="#F6F1E6" d="M-42.92826013258228 -18.766785303895468 C-42.92826013258228 -18.766785303895468, -42.92826013258228 -18.766785303895468, -42.92826013258228 -18.766785303895468 M-42.92826013258228 -18.766785303895468 C-42.92826013258228 -18.766785303895468, -42.92826013258228 -18.766785303895468, -42.92826013258228 -18.766785303895468 M-43.828837860831186 -9.43010102947311 C-40.58781008203261 -14.36518936654587, -37.38812434381017 -16.894083651637498, -35.134337737826755 -19.41399501036437 M-44.042712954818505 -10.474350066961042 C-40.59047137372568 -13.801244841091755, -38.17537149963674 -17.08708797252379, -35.096807684618035 -19.72863173706284 M-44.369451924650946 -3.1912945619964237 C-41.45183925961193 -5.851515393204773, -37.641626696862645 -11.089204408417235, -28.51889560586962 -18.678028763350717 M-44.1250721167028 -2.0967380572171352 C-38.24439931305189 -7.776449627976839, -33.36456309546875 -13.607961881509466, -28.763410356541193 -19.128781211720128 M-43.52968972240009 4.467665816061611 C-38.60432770705447 -2.0887262173010512, -31.894914650613806 -7.720679779270896, -21.51379144603873 -18.213520883174752 M-43.97120081653639 5.1594961839488445 C-36.71507213759321 -2.549402691339474, -29.99449202882892 -10.70823776083816, -22.872327823100292 -20.1604443665479 M-44.18294347787616 12.651406824482978 C-36.862552771114224 4.6807744896510295, -30.216414176707435 -2.8151468251270657, -14.960564047155927 -18.685033510810293 M-44.87058746797848 13.860251225239704 C-33.798822414750255 -0.07553815355185534, -22.426615301084546 -12.644615269455494, -15.875347183400068 -20.340393581496524 M-42.05163981498069 18.533865354219454 C-29.685316939849688 6.510245431565801, -17.766401238333863 -8.313350809260783, -8.820303306081353 -19.50901142935004 M-42.29389973330221 19.02589858599229 C-30.196941646959576 5.021471364885592, -19.00957062094441 -8.073879970332566, -9.017346948272271 -19.70450763192449 M-36.96622228273041 18.97917692743891 C-26.623612776480194 7.3655610084361, -14.573356897401837 -5.650792861041007, -1.4291024077410992 -18.9014222560917 M-36.66914110204442 19.863774864162053 C-28.761741200635935 12.141674018454248, -22.486073666701554 3.653562130575121, -1.925406726316663 -19.554453009452775 M-30.632685868024133 19.875142996650716 C-20.947337441877085 10.10709205159069, -13.108018472720863 1.5037580715307668, 4.176144841351881 -19.656203574008618 M-29.63183901478212 19.58455964201939 C-23.0501435476684 10.546762796111164, -15.590271711797493 2.5481969794783685, 3.8540668448216726 -19.335600534351236 M-22.545312431593317 20.443702998637 C-17.17424609566279 11.261587397779952, -8.275178030530107 1.8487393466917421, 10.603756038758426 -20.137408886411365 M-23.53584904861038 20.037778056271588 C-14.594821333072092 9.682751924906206, -4.306786608956172 -1.0108426486805469, 10.835779105847275 -19.71344331784626 M-16.196806575324022 21.76247583459684 C-7.388074999092243 10.252649261111689, -0.3675996895857142 0.8056388180907346, 16.84749123027933 -19.082635030277796 M-17.643859159650564 21.0266397297927 C-4.802780940590812 5.55437711375635, 8.594884526577564 -9.432809444627086, 17.13916096001272 -19.907040324336545 M-10.655902969629677 21.25432889280197 C-1.7209414119826112 9.085412787492977, 7.183611069749123 1.3514696956209045, 23.160795764403183 -20.096672096244976 M-10.61234440391306 20.076068018693572 C-0.5014050025633007 7.67628278963358, 9.870587639180226 -3.3887279111477695, 24.190931758628256 -19.516363699508513 M-4.654391411732896 20.00978582383588 C9.066400556013615 6.590860668748924, 18.946167915060695 -6.919676593790113, 30.434292000928046 -18.583838149742853 M-4.380977600537914 19.786572317826142 C5.5559858188780025 10.446139358667663, 14.702360337935556 -0.15446881631200227, 30.23385904490541 -20.13481176422325 M3.651308391536292 21.41300151066007 C10.188949509711886 9.534216507567953, 19.7715934972516 -0.6941025916346713, 35.91256155713777 -19.917256354347817 M2.6593469105056036 21.1719909604777 C11.893221950096514 8.58262505299812, 21.60219144052218 -2.192368787918802, 37.5566953010851 -19.352688319597206 M8.671569198814492 19.219826754742485 C18.522316516912987 9.698600019171169, 27.79775503347233 0.38529188305268935, 43.716523361220574 -17.49677040881128 M9.199870374379719 20.2503883432437 C19.57717710476353 7.97046540463634, 31.186948693248215 -5.42619189657551, 43.541740301475265 -18.177257838212434 M16.034163709843966 20.48305036676599 C24.35384063611537 10.999949814792895, 32.16668549738971 1.7584509036672382, 44.43437720281774 -12.264272188483723 M16.431851741956308 19.917540765023578 C23.99505725741438 11.086846037464884, 32.71755945423979 1.7976293743776475, 44.84402839782855 -13.395636133567754 M22.533328747978224 21.09751248370165 C29.36281103874597 13.184477770579516, 36.76202532929435 5.74764599047797, 44.58071743849876 -6.890479674943242 M21.507530739787885 20.758877958157836 C28.540209377269658 12.308471404346022, 35.78772016969497 4.220177231505251, 44.55058450679672 -5.154971125631733 M29.08941283390848 20.618985728399306 C35.87992466636861 12.049464808047466, 41.617888933397694 4.649477274188023, 44.34630700449512 2.741830245447685 M28.942192902128184 19.93074901160899 C32.94380826751515 15.894661636961775, 37.951391244553086 11.237992694378914, 45.332321308672526 1.6458507941934806 M34.989230803793305 20.3248291110062 C37.303712557390384 17.52272511462802, 39.84993944353033 14.151342647125036, 44.81879657926388 9.957171951699578 M35.36003438546837 20.51044146028386 C37.78581316369524 17.966535321635618, 39.81417504884617 15.4687219632092, 44.463353775959 10.153974901916186"/><path fill="none" stroke-width="1.3" stroke="#807A6F" d="M-40.83157857409519 -18.980495294473187 C-16.82022172435996 -20.5666199390155, 7.296033333865019 -19.332569896528724, 39.808149436370655 -19.07274825664748 M-39.78802003741362 -19.8030638564857 C-10.637908942733976 -20.619887370827602, 18.57813245912087 -19.759186789051796, 39.66813923619737 -20.41286067768091 M39.59375 -20 C42.14768841346577 -18.976003597283373, 44.10580788774217 -18.10986532463779, 45.878917031035755 -14.454093166003847 M38.31602056229923 -21.353462741712786 C43.513552314708264 -20.803378478472446, 43.242933740449644 -16.309682243196708, 46.10333457135438 -14.019162205964136 M44.26318795161207 -15.981681318051978 C43.51704118759579 -2.5335966191911288, 43.58092338316209 8.133077888352638, 43.20759501121381 13.737099820307163 M44.12963890714757 -15.046839756815517 C44.223232290687584 -7.392030680648546, 44.73541666259151 0.5692050222815163, 44.050462225534176 15.539070657091859 M44.59375 15 C44.46792633493612 18.305777308281748, 43.6926324926634 21.299472639286982, 40.15210233266934 19.060549086452717 M45.64032763356663 14.484249702849928 C44.675462708710675 18.932329531475517, 42.094828359975914 19.332307994171785, 40.90677236277474 18.60706004595762 M38.822248531566935 20.52166565422452 C11.596371967056845 20.523868850676678, -15.885016141782769 18.683905659022255, -40.43376968868814 21.3167460814835 M40.22241084892203 19.715643109177957 C12.040530005756919 19.78161457121947, -16.382748828677716 20.00522180612954, -39.126012423793874 20.116088096995128 M-39.59375 20 C-42.096203650048565 20.154919944684593, -44.68857712600474 17.78242705731704, -44.22853573915631 15.333386023159154 M-40.18805774569136 20.27786727995215 C-42.803296659654265 19.326404947095284, -43.56238874514463 18.609554091867558, -43.65560332160639 15.101532760336354 M-45.09534948189051 14.48183953165243 C-44.82057487432055 3.5520502917890666, -43.88387672653641 -8.02247305351192, -45.37519552369728 -15.43674618633735 M-44.59432393709768 14.968587488632146 C-44.780091205113514 7.545350774669897, -45.31304924569523 1.0301824154963644, -44.47462004254323 -15.337037213219272 M-44.59375 -15 C-45.90297012072174 -18.13344127024415, -42.176797579282486 -20.80434651925658, -40.78736217525107 -20.507941530754646 M-45.413071297434506 -15.392860335812848 C-44.20703287620309 -18.69219620312702, -42.274331358020156 -19.909979649163787, -38.76152835930394 -20.773485262796807 M-39.59375 -20 C-39.59375 -20, -39.59375 -20, -39.59375 -20 M-39.59375 -20 C-39.59375 -20, -39.59375 -20, -39.59375 -20"/></g><g transform="translate(-36.59375, -12)" style="" class="label"><rect/><foreignObject height="24" width="73.1875"><div style="display: table-cell; white-space: nowrap; line-height: 1.5; max-width: 200px; text-align: center;" xmlns="http://www.w3.org/1999/xhtml"><span class="nodeLabel"><p>Scheduled</p></span></div></foreignObject></g></g><g transform="translate(163.86328125, 211.42456150054932)" id="state-Running-3" class="rough-node  statediagram-state"><g style="" class="basic label-container"><path stroke-dasharray="0 0" fill="none" stroke-width="4" stroke="#F6F1E6" d="M-37.66716080064806 -18.16842040835768 C-37.66716080064806 -18.16842040835768, -37.66716080064806 -18.16842040835768, -37.66716080064806 -18.16842040835768 M-37.66716080064806 -18.16842040835768 C-37.66716080064806 -18.16842040835768, -37.66716080064806 -18.16842040835768, -37.66716080064806 -18.16842040835768 M-39.383793068072556 -8.991975131865512 C-35.79692920777165 -12.501550812760183, -32.578255772074215 -17.145848530605996, -29.209118362536646 -19.5518401256582 M-38.52786605085054 -9.861460818076463 C-36.39505666467586 -12.349237673218438, -33.79616405499597 -14.412866398508493, -30.13705368114117 -19.81141453500516 M-38.85703489423899 -1.7304769512781308 C-35.78451089797133 -7.208524865677593, -33.1168448767153 -10.476615089441097, -23.713985633187832 -19.156030190208984 M-37.77105877918828 -2.2239888396970517 C-33.83820711851752 -7.4880404480912945, -28.843969133569303 -12.351544031327084, -22.768796966398387 -19.218282565817177 M-37.82293878869729 4.428078236890892 C-33.309676801512964 -2.874753373704598, -26.938916553135364 -8.868198436010704, -16.407318293420396 -19.712077865650237 M-37.5104000603741 5.905763182072497 C-33.809898827939875 0.21772761041246655, -28.999254121815028 -4.740671321617826, -16.159849712665782 -19.192340455821505 M-39.08277811959063 11.773671959358756 C-30.745119018789815 5.975553437599576, -24.48845554292809 -2.172810234906351, -10.452073533589974 -18.495597035298292 M-38.99387085150756 13.61099550305381 C-32.92067274988895 6.504984704391376, -27.479672580765524 -0.2491833098184018, -9.685286118929476 -19.596018408092725 M-37.60523965707701 19.286599596847655 C-28.846543386417018 9.276273465931897, -21.61554396413111 3.145655410003306, -2.829595957973169 -19.88284750267276 M-37.09288074488904 18.85361293740752 C-28.045515676003465 9.167698255030732, -19.525292690569536 -1.2008885112468908, -2.564809974205252 -19.754762267040572 M-31.903681176453926 20.469986428375805 C-20.80804844948826 8.455821183964154, -7.87788305364268 -6.536555917278715, 4.49343525583239 -18.79998966412099 M-31.55116507157525 19.846945700115672 C-21.35061260988253 8.149155196690334, -12.028532903792446 -2.849205813792444, 3.7128295162243266 -19.86126537143586 M-23.92917707097827 18.684118323942894 C-13.22434777453892 5.505351765393952, -1.3898180197366972 -8.786547439277665, 10.761716150521476 -18.03376360755686 M-25.007748132758493 20.09231912472801 C-15.886603085982097 9.521688865998863, -6.435437622875721 0.024822699565382855, 9.429698362578375 -19.29376410966169 M-17.330313836894263 20.349456859424617 C-3.485143588517137 6.1253184034679835, 7.541621875550565 -9.506188287182836, 16.0031702480487 -19.064496858295378 M-18.520639207516364 19.770160617545883 C-8.303850505442908 8.031688966486461, 3.1048771685373113 -3.6160615141967196, 17.140955082101545 -19.81093688607431 M-11.54522541616836 19.85696227085988 C-2.8102414215157925 10.135766226279992, 4.7547627042585745 2.7299524703575155, 23.544345001985523 -18.32189176312914 M-11.685036698808496 21.074919367162014 C-3.1268634004779283 10.763399297923579, 5.282271348004845 0.7985877027554367, 23.716430964195556 -19.354179210332937 M-4.971428859252464 18.961669107455357 C8.497181291311923 5.627004398009846, 18.336764286317774 -8.866142371312911, 30.6653244789155 -18.979405374702534 M-4.2412703505392955 20.48263514498281 C8.534297629702735 4.439803644242804, 21.52949890219349 -9.59281857599696, 29.6108031864682 -18.666001600959333 M0.7807342936328467 21.261592419332537 C9.923990004078592 10.342513369649254, 19.0589987943726 0.4128448708700372, 36.905667062429416 -19.195432950808875 M1.5223825901709058 20.244849119985435 C15.084089750452302 4.374993128731616, 28.304576653034776 -10.905684363813268, 36.62233754630462 -19.404645290082797 M7.31931046213793 20.34497040001906 C17.295228454690328 9.408775229886693, 26.07789131900569 0.3900728890369033, 38.99942339026956 -13.879591093036087 M8.92820930295302 20.814649349461565 C14.593071262605548 13.112858286788173, 21.471811571782784 6.568062669795727, 39.43231688674247 -15.127094077274204 M13.322577389784518 20.803300887982097 C21.062668549217808 12.422569165504415, 28.743529905697365 2.596157247658676, 39.60672508238161 -6.298143713426215 M14.316983579317368 20.95437699598555 C20.580728964954904 14.104820274651876, 26.22103846475901 6.970894384154538, 39.18797366293248 -7.560824475256134 M22.728302280194463 21.12444546380728 C24.67261783558467 16.20622909094433, 29.33808524187844 12.51522922615992, 37.93885531539179 1.926023657940579 M21.674567442924793 19.818221041675994 C26.066803616196143 15.870014760803066, 29.984489212372704 11.075733098050575, 38.202434826849306 1.2373100099756589 M27.717109766213884 20.327909496462347 C31.629306175730903 16.39213218089654, 34.69625115696072 13.306096422420323, 38.867199197880375 8.854507106882641 M27.72397619695327 20.949505440538633 C30.98680331126127 16.76136718114599, 34.394214860146086 13.179440903855125, 38.37317446596015 8.258953397261811 M37.27316070015803 17.579552985862236 C37.45983671906708 17.280345418959076, 37.57112792674919 16.922093868799227, 38.498848671626675 16.13579463615978 M37.20902420380168 17.755923140809095 C37.495882517535584 17.250929757069777, 37.92903689762792 16.79617019157331, 38.5044449909406 16.134890650981372"/><path fill="none" stroke-width="1.3" stroke="#807A6F" d="M-34.23633342951031 -20.77712686398899 C-16.0482152369055 -18.600708705763964, 2.110043004992697 -19.39374006647847, 34.03971896444335 -19.157008763134538 M-33.527640391774234 -19.70338883480198 C-19.383911904853775 -19.251955534485063, -5.495232318364071 -20.32625256496693, 33.75633209614602 -19.63184111362484 M33.8125 -20 C37.96836052545219 -20.4534919253261, 39.76381032343744 -19.047409611084724, 39.970501928499104 -13.94749400410527 M32.852961668705305 -20.716041384560505 C36.85834448226693 -19.12692305185349, 37.77899349050801 -18.710685315541877, 37.45864456799741 -15.360752705966169 M39.90678150096737 -14.058884788335613 C39.64142840801874 -4.590400799003037, 39.4535506479034 6.87258385480678, 39.39171200077151 16.28063088664066 M39.43105342422258 -15.214674872158149 C39.21722452062894 -3.1248457440528004, 39.452560583735895 7.7773299388390225, 39.19266000657693 14.436093812987105 M38.8125 15 C39.221095075469805 17.578912592818476, 36.658576989594344 20.28544994083736, 34.29804029895899 21.019810528333924 M39.02382444902037 14.736741114876331 C37.75693163185911 18.527812432780177, 36.86887403587513 20.74112692706427, 32.40116972720134 21.573113014305846 M33.706910154694185 18.775180353782886 C9.355344625604426 19.617227966346668, -15.491121419557446 20.1229169486622, -32.50085549807908 20.888320615618625 M34.16084593115234 20.69429655474076 C10.541240541736249 21.046416592855994, -12.849066906438956 20.591207364401974, -33.94899359233135 20.279495592887276 M-33.8125 20 C-36.51793837528834 21.36758346692449, -38.08072833482502 18.594562294444803, -37.75743072352582 14.149361498911597 M-34.91216465976161 19.05418128820426 C-36.56883548064155 20.802567539020263, -39.665866355331744 16.56919945981134, -40.22271738193766 14.012989561616065 M-38.67523499007166 16.396897128386357 C-39.61114738738028 2.6088405917881756, -39.794296523816406 -8.24302314514999, -38.41727442975735 -14.406008717093545 M-38.86646840638877 14.525210176858199 C-38.28944799259004 6.821136625039887, -39.14481756381881 -2.323802977068494, -39.17796017039437 -15.612596688201696 M-38.8125 -15 C-38.46522656340502 -17.729984145702566, -36.90935449529756 -20.508355194625203, -35.20629451872472 -18.682271587580285 M-37.59545683319073 -14.441700488224123 C-37.98349452472634 -18.29824816675577, -37.31177049554817 -21.487527532158136, -32.410263732179075 -20.475444901134445 M-33.8125 -20 C-33.8125 -20, -33.8125 -20, -33.8125 -20 M-33.8125 -20 C-33.8125 -20, -33.8125 -20, -33.8125 -20"/></g><g transform="translate(-30.8125, -12)" style="" class="label"><rect/><foreignObject height="24" width="61.625"><div style="display: table-cell; white-space: nowrap; line-height: 1.5; max-width: 200px; text-align: center;" xmlns="http://www.w3.org/1999/xhtml"><span class="nodeLabel"><p>Running</p></span></div></foreignObject></g></g><g transform="translate(77.140625, 328.1203622817993)" id="state-Committed-5" class="rough-node  statediagram-state"><g style="" class="basic label-container"><path stroke-dasharray="0 0" fill="none" stroke-width="4" stroke="#F6F1E6" d="M-46.1093340593259 -18.882024693729058 C-46.1093340593259 -18.882024693729058, -46.1093340593259 -18.882024693729058, -46.1093340593259 -18.882024693729058 M-46.1093340593259 -18.882024693729058 C-46.1093340593259 -18.882024693729058, -46.1093340593259 -18.882024693729058, -46.1093340593259 -18.882024693729058 M-47.90859996695874 -9.285693576602037 C-44.94374268643246 -12.543967400146093, -43.110268057606426 -14.231900905122837, -38.97977913641148 -19.34439886572614 M-47.51055802724206 -9.657052026907248 C-44.865527957794946 -12.578924943274055, -42.06282272597838 -15.485413201791847, -38.51068216085227 -20.438953349234726 M-47.47512372280542 -2.5529936317680892 C-42.38272759785022 -7.536016928569831, -41.7919206216561 -10.5051180546802, -31.453019294715304 -19.54771963632217 M-47.43345843968896 -2.8681839757773675 C-40.86579047089698 -9.11813398364291, -35.2712098331838 -15.019471541919359, -32.12111376111662 -19.49435418323199 M-48.04391519270043 6.459963136291679 C-41.643261103585196 -1.583707656670603, -37.838330651514816 -6.714526921159611, -26.283460593079305 -20.279053656795774 M-46.887176510011024 5.730925599632665 C-40.20849568422703 -3.6769697004483124, -31.492435905330716 -11.83463178290144, -25.391765808140125 -19.935737056526982 M-48.61668265777996 14.132030466430383 C-36.36830952482672 -0.18853385009163082, -26.419791433675815 -10.262103684218989, -19.020471545803034 -19.872484701288588 M-47.08396144222135 12.627890710375693 C-36.207272237433514 1.026323573609711, -25.335733901005945 -11.643421003800894, -19.199582507467927 -19.739152255725095 M-45.54344410850599 19.293876398580878 C-36.1412927601965 9.631433639092378, -29.265396210208756 0.4398498356810514, -12.230297542352917 -19.527807439430315 M-45.66554733240214 18.021605178732376 C-37.77463144653542 10.741372278676721, -30.98147726712615 1.7528556291025517, -12.661290984350524 -20.53734899871493 M-40.86952774884047 20.650602073430072 C-28.844967480726883 9.519629378808196, -18.31717080708619 -5.269097489906921, -6.962869412083777 -20.143618264521955 M-40.071173875846526 19.924692858334353 C-32.462803371615024 10.706652845047918, -24.700011761622704 2.326007668029944, -6.051719739303919 -19.15667567586403 M-33.87046380380955 19.64581960699795 C-27.61642494880064 10.801482641019554, -19.517716372540697 3.834057691140833, 0.08407493191171611 -18.151037745917073 M-33.31868023877927 20.100710918828963 C-25.50923457981217 10.455551608512367, -17.502202555898773 2.76982202596136, 0.7715074181021832 -18.657417637897236 M-25.925092999196202 20.461498259610885 C-18.382613438879368 8.970228469077876, -8.181873596811037 -1.3362638049485875, 6.749816692366174 -21.07871009973558 M-26.467424779652056 19.63158330299409 C-17.163640248671864 8.74541006527956, -8.249877471052603 -3.050631458669774, 7.544292732930948 -19.945185301310882 M-21.010537167710634 21.187732898422958 C-11.510901373783055 9.146481544803814, -0.6985990405864788 -2.81236462393804, 14.020669734343445 -18.300456507151857 M-20.830178674136587 20.11671400395999 C-8.167544827778412 5.697750923464168, 5.5011485764189185 -8.454659731192615, 13.47848850629494 -19.033537209594737 M-14.287557851238414 21.356625527950637 C-3.705450606678877 10.025044501425356, 4.45842000880917 -1.2531072656517908, 21.430336726839474 -19.28566053231282 M-12.971118158385451 19.84583057698044 C-3.3447242382709517 8.98131893120852, 6.858612135245663 -3.599068184461173, 19.910728713693487 -18.91670273007764 M-6.086387927124299 19.57745621736832 C6.557799433432967 5.891210358444016, 17.57343942131172 -8.105834774870058, 27.672036431147987 -20.00848394130257 M-7.487581408735867 19.676683902881905 C2.7988023591677234 7.868419551999402, 13.423605032833597 -3.2914654912719725, 27.185643210816426 -19.414070345511988 M0.12822527156701102 21.611969346699773 C10.517431625504495 5.489635827889236, 24.696165624934245 -8.626460312039347, 35.05054230360158 -19.28707869367454 M-0.6806807148952868 20.97689599753748 C12.419109792419947 5.405162706863599, 24.465122887407148 -9.523776139238693, 34.097177383795746 -19.845999665838743 M5.12358218804929 18.85000041816292 C19.623932676279434 6.463084056805635, 32.44536760663548 -9.729943903207701, 39.48458313883501 -20.05058983910288 M5.9644824571739345 19.676814693198985 C16.321536463961692 8.408475058015783, 26.2443845377299 -3.647102686749837, 40.86049271725711 -19.483405647445984 M12.48458871809457 20.428372591699357 C24.95818437586432 6.527878056330097, 37.50231518038101 -8.749218635851404, 45.057711269951135 -19.523903747984484 M12.077345980354414 20.364037129451543 C19.939604821029466 12.381112455872227, 27.436810999647886 3.9955817183000617, 46.46116338331574 -18.569012866218767 M18.92150414371554 20.62517925197193 C28.999854593026782 7.112221647957168, 38.3960517184767 -2.598523092684374, 49.76636513706433 -12.557722102694214 M19.70649596357895 20.80457374950415 C30.56572793714936 7.9784918207363775, 42.14667978858953 -5.856071594165123, 48.49446999354168 -13.732196811104753 M25.843755601695378 21.817686395774334 C30.660876795406278 14.403967458124674, 37.128940321624505 8.49014718324239, 47.61192069620415 -6.923281674672173 M24.942097847410793 21.048162660725602 C32.20042190016758 12.345963576331922, 38.23756446929513 5.411248280270215, 48.44594627680967 -5.084276398618583 M33.44186302420314 18.96119603850609 C38.33935951074695 15.597511993552061, 41.751834746624134 8.620747542719247, 49.34120202446453 2.4555349102152824 M32.31484271733945 19.958114631480075 C35.85639480918457 16.636978654704212, 39.3838140867388 11.977256910915258, 48.91674016799502 1.5809713396668803 M38.39935746048975 21.468137218384456 C40.78559553576432 17.99955018316558, 42.802095837482234 15.31372987484228, 48.95622292640371 10.763775191666666 M38.977730258521945 20.083368511625395 C41.879488176206074 17.057754561475544, 44.84885764940876 14.142887670242402, 48.29711773110875 9.664645734437302"/><path fill="none" stroke-width="1.3" stroke="#807A6F" d="M-42.41856244366263 -18.932541668046465 C-17.41986228969492 -19.580027068881027, 7.007357185502105 -20.496500480348434, 44.13466516739025 -21.22367668623078 M-42.20796707672137 -19.58344961433396 C-25.59315158973485 -20.47393156540457, -8.888555499524262 -20.455872261896726, 42.48956689232042 -19.39168212059388 M42.875 -20 C44.74519834815187 -19.292380708583973, 46.51619284183228 -18.662111942947174, 48.76086774691032 -15.855154400594712 M43.332741962023306 -20.25995390603731 C46.00956214209657 -20.428760374094505, 47.859301812210845 -17.224892888469704, 48.39601773918952 -15.536041786169218 M48.258279518605676 -13.892777509522006 C48.024904771079186 -6.1433332165715555, 46.76411710774787 1.1298356828504563, 48.339351527845736 14.279998026810244 M47.73058062938552 -14.338036547636571 C47.10243197651806 -3.779932718610861, 47.42250660181315 6.729803752992868, 47.82325868278203 15.519623962825507 M47.875 15 C48.4334482452885 16.904491835768045, 46.82119867412831 20.112830467058263, 41.91460068452385 19.267535568712578 M48.85329567122629 14.030892857511247 C49.38630722339088 17.482799613305552, 44.04530689132279 20.334594687625618, 44.45521869977028 20.73791284476866 M41.95378153135756 19.05824772896294 C24.646368942086063 20.432521141783415, 4.80519572855428 19.65454969112597, -42.50985102576896 19.08468959793199 M42.21815178089231 19.97814402124669 C17.162639154845138 19.684346641385616, -7.643894641845904 20.480576963828767, -42.6426212452437 19.324889835820656 M-42.875 20 C-44.31225994889626 18.749568214615365, -46.784998053024104 18.621445812060728, -46.79381260478233 16.157533856575984 M-42.01214550819008 21.136607758261768 C-45.95800942698651 18.9195188199436, -48.035909162079754 18.613509804935582, -47.35140119096576 14.557783047447233 M-49.00372514376252 16.3342560469241 C-48.324186931744414 2.740924460590809, -47.657552271916884 -7.39951911953289, -47.155694619888585 -15.652448731262929 M-48.32036772066234 15.24049542584798 C-47.640708075152354 6.245136113646419, -48.56215123984231 -3.5095009045115257, -47.59493718167537 -14.9182857702481 M-47.875 -15 C-47.82932781240386 -17.102264697465113, -44.52680827798547 -19.98491592810269, -43.361475943806646 -20.244230988228725 M-46.70956860066099 -15.07054631698329 C-49.219783531770226 -17.01060468238835, -46.29153152338321 -20.489016963353613, -44.16445836045623 -19.375466683762678 M-42.875 -20 C-42.875 -20, -42.875 -20, -42.875 -20 M-42.875 -20 C-42.875 -20, -42.875 -20, -42.875 -20"/></g><g transform="translate(-39.875, -12)" style="" class="label"><rect/><foreignObject height="24" width="79.75"><div style="display: table-cell; white-space: nowrap; line-height: 1.5; max-width: 200px; text-align: center;" xmlns="http://www.w3.org/1999/xhtml"><span class="nodeLabel"><p>Committed</p></span></div></foreignObject></g></g><g transform="translate(318.79830741882324, 328.1203622817993)" id="state-Failed-4" class="rough-node  statediagram-state"><g style="" class="basic label-container"><path stroke-dasharray="0 0" fill="none" stroke-width="4" stroke="#F6F1E6" d="M-28.666826201343483 -18.29462686536655 C-28.666826201343483 -18.29462686536655, -28.666826201343483 -18.29462686536655, -28.666826201343483 -18.29462686536655 M-28.666826201343483 -18.29462686536655 C-28.666826201343483 -18.29462686536655, -28.666826201343483 -18.29462686536655, -28.666826201343483 -18.29462686536655 M-29.705910363512814 -8.951497332122615 C-25.673029314200424 -13.420246699602975, -24.010462669800877 -16.623678139048085, -20.108089032031184 -20.158835543099954 M-29.569851235333573 -9.355024739637976 C-27.440905260547893 -12.533903141843076, -24.607278363238017 -14.93497388161928, -20.518647212409224 -19.727575076738248 M-30.632526128685008 -1.502050883792328 C-24.029016281460592 -8.993489595299078, -18.620296162077434 -14.290341894963083, -13.168571491448429 -18.68150526079499 M-29.305452695812367 -1.6735016402676997 C-23.438060666233852 -8.841907844265135, -17.634799844119755 -16.410324306254473, -14.114799853344397 -19.476392136499175 M-29.625089131898964 6.199046875921789 C-23.7447267334194 -0.49778866090244156, -21.82560250826528 -5.605522320788281, -7.189721489926652 -18.80165589760618 M-28.715784071482908 5.335495261676305 C-23.20445884503827 -2.0279489630123804, -16.45773258328262 -9.61200145299494, -6.826854792539311 -20.151251077942504 M-28.395089066090133 11.905186585824332 C-23.027741990390382 5.540705992880504, -14.34564653792064 -3.008137905975278, -1.493837602671729 -20.308657952680836 M-29.886791036839032 12.738582788082352 C-21.06715147772574 3.7888618654306425, -11.542262718175065 -6.851998816543219, -1.5577433910802334 -19.8833320792213 M-26.84625538090334 19.705493964004688 C-20.8590308564876 11.557039137080471, -13.471144007072553 2.8460012471949945, 6.742809962626655 -20.501720013770726 M-28.862548918687946 18.93090901613985 C-19.038979843679957 9.330917775671036, -9.641352552383605 -2.0704695321319786, 5.287765504430594 -19.496064707189777 M-21.13556533893011 20.104009247754476 C-8.690369086738523 5.972850817225746, 2.4753374730804083 -9.154414600327884, 12.939758697679078 -20.032042694880207 M-22.009701411299744 19.71174658100979 C-14.224170814268474 11.136767618565253, -5.889087486027845 2.0506988969795428, 12.393747090646352 -19.606072217779584 M-16.5232639765992 20.494714071238935 C-2.3817294429761042 5.666158244518885, 8.053813967825166 -5.527539779058529, 17.756474064862044 -18.87887391185119 M-15.300438964814575 19.329381646242634 C-6.969046453303665 9.429076812520982, 2.8781074525468626 -0.8248217625032037, 18.69522586148998 -19.004760826757582 M-7.869470005171255 20.382701669584257 C2.9731344562476716 4.892689328785986, 15.258857110819422 -9.208370767072639, 26.473221103958963 -18.298990018011267 M-8.874510323992494 20.11256758534494 C0.03271776627546022 9.75554231425687, 9.29771603320033 -0.9208707426494129, 25.591080382131317 -19.846049264141055 M-3.1115379915735244 21.30073650579511 C5.4314578983113 11.959608739180247, 14.078757131320472 0.49746322476717997, 28.64717628731117 -15.6582830731731 M-2.4194434176664386 20.4151779781556 C7.950239311399555 9.091040239620039, 17.05182913396106 -3.443791295446462, 29.45927298470986 -17.08578783547335 M4.085695041490195 19.906695348280277 C14.255546222942707 8.191795235231039, 23.014728885041794 -1.8675126722370061, 30.549577002609638 -10.84089334999667 M4.361129089728286 20.43343173803368 C12.80296239240533 10.713373107910131, 19.366566807506356 2.34778942463618, 31.159772265408233 -10.202993378121574 M9.75393369500634 20.565491568694423 C18.34208335272131 11.667349677757095, 23.20977077639686 3.8089948347266307, 31.909889202839533 -2.5263995583736256 M10.535902239839464 20.192728547959092 C17.169067328140965 13.524631540766332, 23.556243169986633 5.444164734558469, 30.972002625464846 -1.9564954191484474 M17.12927095985175 20.810376883773554 C19.407946781583547 15.440222818710954, 24.37737096148284 12.051581452677882, 30.341452847628116 4.53736568023077 M17.028673183038897 20.402737355369048 C22.375202143371396 15.21957635155639, 26.523223273345454 9.287290210850568, 30.23727750756361 5.774178353816992 M24.264598268947356 19.948075226380073 C25.814904850135374 17.613470561499618, 27.8537258333941 15.529724891625708, 29.873256446860452 13.126421551308013 M24.403034395041825 19.71397913199465 C26.503129248051096 17.324552895417142, 28.678113064841508 14.755124069179532, 30.326072688301668 13.198579903363147"/><path fill="none" stroke-width="1.3" stroke="#807A6F" d="M-26.031244571833557 -21.13237898817859 C-4.817766933327236 -19.02438964381385, 15.410967633065495 -20.639261483135822, 24.324157927803274 -19.70876139738005 M-25.113531420429563 -19.605936068342157 C-4.858021275417172 -20.512488043558562, 13.214200752190985 -19.617589585190977, 24.894769854298342 -19.51063491715776 M24.921875 -20 C27.935684426672527 -20.78884713752438, 29.022740119051928 -18.948539358508107, 28.61401284463111 -14.458052556913891 M25.598702077478258 -19.143664519856625 C28.111879970988696 -20.589390786773357, 28.942679313227977 -19.29605810141977, 31.226639197159166 -13.50033770533605 M30.878884949908464 -13.80467872152761 C29.513503325824402 -4.153167436147431, 28.4907241654144 5.519417517789671, 28.6126388807933 15.488443754039425 M29.735952823740554 -14.448269938303492 C30.174616669225653 -2.6617378736379416, 30.679886153993994 8.745296828469533, 30.50968792462304 14.619566350696287 M29.921875 15 C29.321848562559307 18.789832296561066, 27.3842658540511 18.958408270947942, 24.431979444448025 21.161474017789768 M29.23993917266747 14.388840204929876 C29.593990201129884 18.14220914355399, 28.761731778766485 18.836181196512293, 25.80608970829749 21.578251231741337 M24.511521747238294 20.526304009677727 C10.103351914863755 19.96726884370127, -1.4921610569363624 18.59699580628068, -23.566561152483246 19.637298002709393 M25.12362632402526 20.256544799589207 C7.279718943852254 20.005008220335775, -10.305179541648865 19.863898729610224, -24.90503974412543 19.519670442594915 M-24.921875 20 C-28.09267952861072 19.46224456370078, -30.571496238181634 16.524659801036815, -29.647182065446803 15.023325366834685 M-23.972348056623318 20.235876327699152 C-26.16684038557152 20.893147771404724, -29.844038360725094 16.382264404613377, -29.799642175085893 13.511446420010397 M-30.14341539724242 16.256798362651303 C-30.49670427835177 5.901865236954292, -30.049142884098348 -0.37955506192002353, -30.593870058347996 -15.129247650031107 M-30.21278283225715 14.333758575377058 C-29.636962145831028 5.0569181780819985, -30.172249819373135 -6.570148767808438, -29.28529875225352 -15.015515940206521 M-29.921875 -15 C-31.239538586201736 -18.31065563721198, -27.14722640573296 -21.338727578291557, -24.58319365268854 -19.578735928694055 M-30.854101403696696 -14.591694079660257 C-30.310653005369858 -16.5778217537075, -26.929482974074777 -20.90509360525515, -24.036217585744104 -20.5720731490313 M-24.921875 -20 C-24.921875 -20, -24.921875 -20, -24.921875 -20 M-24.921875 -20 C-24.921875 -20, -24.921875 -20, -24.921875 -20"/></g><g transform="translate(-21.921875, -12)" style="" class="label"><rect/><foreignObject height="24" width="43.84375"><div style="display: table-cell; white-space: nowrap; line-height: 1.5; max-width: 200px; text-align: center;" xmlns="http://www.w3.org/1999/xhtml"><span class="nodeLabel"><p>Failed</p></span></div></foreignObject></g></g><g transform="translate(77.140625, 406.9840054512024)" id="state-root_end-5" class="node default"><g><path style="" stroke-dasharray="0 0" fill="none" stroke-width="4" stroke="#F6F1E6" d="M-6.432239492873563 -4.266447492263948 C-6.432239492873563 -4.266447492263948, -6.432239492873563 -4.266447492263948, -6.432239492873563 -4.266447492263948 M-6.432239492873563 -4.266447492263948 C-6.432239492873563 -4.266447492263948, -6.432239492873563 -4.266447492263948, -6.432239492873563 -4.266447492263948 M-6.064083026469499 3.267375289285686 C-4.3828347802221295 0.1790892114807976, -2.161792591743403 -1.4019016432405542, 2.4736374451645773 -6.559004048968648 M-6.193590974926138 2.938625840216825 C-2.973799068510169 -0.5793099465896029, -0.16994117309238327 -3.712296513513074, 1.6814141218178529 -6.411045183741692 M-2.056448737609413 6.280062469389683 C0.6240142600681381 3.533244709888578, 2.457607171129682 0.5998296068879398, 6.126999644737703 -3.178884016425684 M-2.4228046461385224 6.274458926845916 C-0.3494315946385269 3.3373049311322074, 2.081250030933462 1.024241887199459, 6.422980262031724 -3.432254472629941"/><path style="" fill="none" stroke-width="2" stroke="#1B1B1F" d="M-2.56506345246655 -6.381591398989016 C-1.2063709520243975 -6.839944682676758, 1.0980383320464193 -7.060231960757097, 2.647400471287099 -6.4699221712735895 C4.196762610527778 -5.879612381790082, 5.995458352957165 -4.230506391690886, 6.731109382977527 -2.8397326620879704 C7.466760412997889 -1.448958932485055, 7.477016308352389 0.4285242171505532, 7.061306651409269 1.874720206343903 C6.645596994466149 3.3209161955372526, 5.5468066214313625 5.060422720012135, 4.236851441318805 5.837443273072129 C2.926896261206248 6.6144638261321225, 0.7185190377724244 6.51074228501346, -0.7984244292660754 6.536843524703866 C-2.315367896304575 6.562944764394272, -3.7951464139180535 7.022279080291607, -4.8648093609121945 5.994050711214565 C-5.9344723079063355 4.965822342137523, -6.974675312370591 2.1000018222895447, -7.216402111230922 0.3674733102416148 C-7.4581289100912525 -1.365055201806315, -7.243337864369787 -3.291516578717385, -6.31517015407418 -4.401120361073012 C-5.387002443778574 -5.510724143428639, -2.358512359005189 -5.928031460472489, -1.647395849457285 -6.290149383892147 C-0.936279339909381 -6.652267307311805, -2.05679449931266 -6.534993331136382, -2.0484710967867565 -6.573827901590961 M-1.7133525846737925 -7.082877561941648 C-0.5066809702419197 -7.411009616141163, 1.519962622901941 -6.7550982401395405, 2.859433903020707 -6.03758034572765 C4.198905183139473 -5.32006245131576, 5.531879234396309 -4.163334272656347, 6.323475096038806 -2.7777701954703042 C7.115070957681304 -1.3922061182842613, 7.969445993506001 0.9238496401551517, 7.6090090728756925 2.2758041173886063 C7.248572152245384 3.627758594622061, 5.644246832366023 4.489042820871933, 4.160853572256953 5.333956667930424 C2.6774603121478835 6.1788705149889145, 0.19287334450963955 7.511242228820965, -1.2913504877787274 7.345287199739551 C-2.7755743200670944 7.179332170658137, -3.745360804180728 5.506990415155514, -4.744489421473247 4.338226493441939 C-5.743618038765766 3.169462571728364, -7.192949381557948 1.7147731679465334, -7.286122191533842 0.33270366945810353 C-7.379295001509735 -1.0493658290303263, -6.213113751211779 -2.896340775577447, -5.303526281328607 -3.954190497488642 C-4.393938811445436 -5.012040219399837, -2.5904283028359227 -5.453972751506575, -1.828597372234815 -6.014394662009066 C-1.0667664416337073 -6.574816572511557, -0.9692656509162915 -7.427281670570641, -0.7325406977219611 -7.316721960503591"/><g><path style="" fill="#807A6F" stroke-width="0" stroke="none" d="M-0.35412106114362474 -2.73288263834753 C0.23065068327470428 -2.8174386733413774, 0.739213181077284 -2.225884947065084, 1.1422905936320167 -1.8361748315337487 C1.5453680061867494 -1.4464647160024138, 1.80611494830203 -0.8432915765034403, 2.0643434141847714 -0.3946219451595201 C2.3225718800675126 0.05404768618440009, 2.8400191725637702 0.3528188303277062, 2.691661388928465 0.8558429565297723 C2.5433036052931595 1.3588670827318383, 1.7675417768834132 2.234251834110128, 1.1741967123729393 2.623522812052876 C0.5808516478624655 3.012793789995624, -0.26281952199576164 3.4465894609729784, -0.8684089981343784 3.1914688241862605 C-1.4739984742729952 2.9363481873995427, -2.1766202174628164 1.538855671017906, -2.459340144458762 1.0927989913325682 C-2.7420600714547074 0.6467423116472304, -2.5571005582307005 0.952562295005771, -2.564728560110051 0.5151287460742339 C-2.5723565619894013 0.07769519714269663, -2.963449368601542 -0.9446329998919588, -2.505108155734864 -1.5318023022566554 C-2.046766942868186 -2.118971604621352, -0.2858714790038683 -2.846510053201842, 0.18531871709001707 -3.007887068113946 C0.6565089131839024 -3.1692640830260497, 0.31668686071283153 -2.6360249687261943, 0.32203302082844826 -2.5000643917292793 M0.1948123776819909 -2.468306212961859 C0.720628261987746 -2.8824308264072585, 0.8377887345966315 -3.3971802735230443, 1.1203766348542454 -3.194592118688717 C1.4029645351118594 -2.99200396385439, 1.815438371800368 -2.0390066657835506, 1.890339779227675 -1.2527772839558966 C1.9652411866549822 -0.4665479021282426, 1.5018414339392834 1.0702780472507458, 1.569785079418088 1.5227841722772069 C1.6377287248968928 1.975290297303668, 2.770970998909428 1.2940926400860673, 2.2980016521005036 1.4622594662028694 C1.8250323052915791 1.6304262923196715, -0.5668283481758998 2.5832772381225135, -1.2680310014354585 2.5317851289780196 C-1.9692336546950173 2.4802930198335256, -1.549600041912074 1.5622443773813597, -1.9092142674568493 1.1533068113359048 C-2.2688284930016245 0.74436924529045, -3.3486258698362477 0.5082647773830311, -3.4257163547041105 0.07815973270529013 C-3.5028068395719734 -0.3519453119724509, -2.8401163098202287 -0.866529433500349, -2.371757176664026 -1.4273234567305413 C-1.9033980435078237 -1.9881174799607337, -0.825210136312152 -3.0920624884088497, -0.6155615557668954 -3.2866044066758637 C-0.4059129752216388 -3.481146324942878, -0.9858209700752614 -2.6111869804032324, -1.1138656933924869 -2.5945749663326243"/><path style="" fill="none" stroke-width="2" stroke="#807A6F" d="M0.19029831720600793 -2.867342986917645 C0.639853112241142 -2.8791015429607043, 0.6318375349772071 -2.6090309261692854, 0.9310545445722354 -2.3149541961154987 C1.2302715541672637 -2.020877466061712, 1.7630452900818798 -1.6874882588809905, 1.9856003747761777 -1.1028826065949238 C2.2081554594704755 -0.518276954308857, 2.4963599543595754 0.6287343735116588, 2.2663850527380225 1.1926797176009019 C2.0364101511164696 1.7566250616901449, 1.1935784284984154 2.0383157915708394, 0.6057509650468603 2.2807894579405343 C0.017923501595305202 2.5232631243102293, -0.919766912185801 2.815984108915013, -1.2605797279713085 2.6475217158190723 C-1.601392543756816 2.4790593227231317, -1.1608654786497044 1.7300166298525437, -1.439125929666184 1.2700150993648918 C-1.7173863806826637 0.8100135688772399, -2.819646150881779 0.38567776467453113, -2.930142434070186 -0.11248746710683932 C-3.040638717258593 -0.6106526988882097, -2.6034397866626917 -1.334093723556461, -2.1021036287966246 -1.7189762913233306 C-1.6007674709305575 -2.1038588590902005, -0.45167931677165973 -2.228183225580435, 0.07787451312621627 -2.4217828737080573 C0.6074283430240923 -2.61538252183568, 0.979726861545043 -2.857869938602208, 1.0752193505906313 -2.880574180089066 M0.03449462862672151 -3.2819596499056596 C0.6825046327578749 -3.459700524222031, 1.562785720087451 -2.0961499351763537, 1.842922862457269 -1.6985044297404386 C2.1230600048270873 -1.3008589243045232, 1.7714713832292952 -1.3813396674380645, 1.71531748284563 -0.8960866172901679 C1.6591635824619646 -0.41083356714227126, 1.4445124660154829 0.6982090207692907, 1.505999460155277 1.2130138711469411 C1.5674864542950713 1.7278187215245917, 2.5607093777774965 1.8997006666890486, 2.084239447684395 2.1927424849757347 C1.6077695175912936 2.4857843032624207, -0.7262527468734717 3.010616703840603, -1.3528201204033317 2.9712647808670583 C-1.9793874939331917 2.9319128578935136, -1.6420548131739443 2.440896148374116, -1.6751647934947644 1.9566309471344667 C-1.7082747738155846 1.4723657458948172, -1.6575199873384463 0.7625909648087796, -1.5514800023282522 0.06567357342916086 C-1.4454400173180582 -0.631243817950458, -1.3419431272177154 -1.939441671666349, -1.0389248834335998 -2.2248734011432463 C-0.7359066396494842 -2.510305130620144, 0.24455335150434937 -1.5772372399940895, 0.26662946037644086 -1.6469168034322235 C0.28870556924853236 -1.7165963668703574, -0.719287616966646 -2.6538723539754505, -0.9064682302010508 -2.64295078177205"/></g></g></g></g></g></g></svg>